<?xml version="1.0" standalone="no"?>
<!DOCTYPE svg PUBLIC "-//W3C//DTD SVG 20010904//EN"
 "http://www.w3.org/TR/2001/REC-SVG-20010904/DTD/svg10.dtd">
<svg version="1.0" xmlns="http://www.w3.org/2000/svg"
 width="559.000000pt" height="559.000000pt" viewBox="0 0 559.000000 559.000000"
 preserveAspectRatio="xMidYMid meet">
<metadata>
Created by potrace 1.11, written by Peter Selinger 2001-2013
</metadata>
<g transform="translate(0.000000,559.000000) scale(0.100000,-0.100000)"
fill="#000000" stroke="none">
<path d="M3088 3620 c-187 -34 -373 -143 -495 -289 -69 -83 -146 -241 -169
-346 -23 -104 -23 -256 0 -360 22 -100 99 -261 163 -340 104 -128 272 -237
433 -282 91 -25 329 -25 420 0 192 52 366 177 474 341 102 154 139 277 139
461 0 148 -18 224 -83 360 -102 211 -267 354 -493 427 -78 25 -112 31 -217 34
-69 1 -146 -1 -172 -6z"/>
<path d="M754 3540 c-233 -61 -421 -232 -503 -457 -152 -415 81 -856 509 -964
70 -18 104 -21 204 -17 128 5 210 27 319 86 l47 25 0 284 0 283 -225 0 -225 0
0 -80 0 -80 140 0 141 0 -3 -157 -3 -157 -54 -18 c-78 -27 -191 -33 -279 -14
-110 23 -196 70 -279 152 -226 222 -228 577 -3 803 104 105 253 171 390 171
74 0 181 -27 254 -65 38 -19 70 -34 71 -32 52 72 84 130 79 138 -12 19 -167
88 -235 104 -90 21 -256 19 -345 -5z"/>
<path d="M1370 3470 l0 -80 70 0 70 0 0 -555 0 -555 -70 0 -70 0 0 -80 0 -80
525 0 525 0 0 190 0 190 -80 0 -80 0 0 -110 0 -110 -290 0 -290 0 0 240 0 240
320 0 320 0 0 80 0 80 -320 0 -320 0 0 235 0 235 275 0 275 0 0 -110 0 -110
85 0 85 0 0 190 0 190 -515 0 -515 0 0 -80z"/>
<path d="M4120 3470 l0 -80 69 0 69 0 4 -452 c5 -486 6 -495 60 -603 50 -98
169 -188 289 -220 128 -34 318 -11 425 51 60 35 141 125 170 188 49 108 54
158 54 614 l0 422 75 0 76 0 -3 78 -3 77 -237 3 -238 2 0 -80 0 -80 80 0 81 0
-3 -447 c-3 -443 -3 -449 -26 -499 -29 -64 -92 -126 -157 -156 -72 -32 -218
-32 -290 0 -69 31 -131 95 -158 162 -21 54 -22 66 -25 498 l-3 442 81 0 80 0
0 80 0 80 -235 0 -235 0 0 -80z"/>
</g>
</svg>
